<?xml version="1.0" encoding="UTF-8"?>
<svg width="18px" height="18px" viewBox="0 0 18 18" version="1.1" xmlns="http://www.w3.org/2000/svg" xmlns:xlink="http://www.w3.org/1999/xlink">
    <!-- Generator: sketchtool 63.1 (101010) - https://sketch.com -->
    <title>9E082398-3E00-488C-8F8B-E8FCA958831C</title>
    <desc>Created with sketchtool.</desc>
    <g id="Icons" stroke="none" stroke-width="1" fill="none" fill-rule="evenodd">
        <g id="All-Icons" transform="translate(-291.000000, -413.000000)">
            <g id="Cost-Summary" transform="translate(290.000000, 412.000000)">
                <rect id="Rectangle" x="0" y="0" width="20" height="20"></rect>
                <path d="M10,1.66666667 C5.4,1.66666667 1.66666667,5.4 1.66666667,10 C1.66666667,14.6 5.4,18.3333333 10,18.3333333 C14.6,18.3333333 18.3333333,14.6 18.3333333,10 C18.3333333,5.4 14.6,1.66666667 10,1.66666667 Z M10,16.6666667 C6.325,16.6666667 3.33333333,13.675 3.33333333,10 C3.33333333,6.325 6.325,3.33333333 10,3.33333333 C13.675,3.33333333 16.6666667,6.325 16.6666667,10 C16.6666667,13.675 13.675,16.6666667 10,16.6666667 Z M10.7416667,9.25 C9.25833333,8.75833333 8.54166667,8.45 8.54166667,7.66666667 C8.54166667,6.81666667 9.46666667,6.50833333 10.05,6.50833333 C11.1416667,6.50833333 11.5416667,7.33333333 11.6333333,7.625 L12.95,7.06666667 C12.825,6.7 12.2666667,5.475 10.7333333,5.20833333 L10.7333333,4.16666667 L9.275,4.16666667 L9.275,5.21666667 C7.10833333,5.68333333 7.09166667,7.59166667 7.09166667,7.68333333 C7.09166667,9.575 8.96666667,10.1083333 9.88333333,10.4416667 C11.2,10.9083333 11.7833333,11.3333333 11.7833333,12.1333333 C11.7833333,13.075 10.9083333,13.475 10.1333333,13.475 C8.61666667,13.475 8.18333333,11.9166667 8.13333333,11.7333333 L6.75,12.2916667 C7.275,14.1166667 8.65,14.6083333 9.26666667,14.7583333 L9.26666667,15.8333333 L10.725,15.8333333 L10.725,14.8 C11.1583333,14.725 13.2416667,14.3083333 13.2416667,12.1166667 C13.25,10.9583333 12.7416667,9.94166667 10.7416667,9.25 Z" id="Shape" fill="#3E4551" fill-rule="nonzero"></path>
            </g>
        </g>
    </g>
</svg>