<?xml version="1.0" encoding="UTF-8"?>
<svg width="20px" height="14px" viewBox="0 0 20 14" version="1.1" xmlns="http://www.w3.org/2000/svg" xmlns:xlink="http://www.w3.org/1999/xlink">
    <!-- Generator: sketchtool 63.1 (101010) - https://sketch.com -->
    <title>E0258B06-075B-443B-98C1-11AF73F3C8D6</title>
    <desc>Created with sketchtool.</desc>
    <g id="Icons" stroke="none" stroke-width="1" fill="none" fill-rule="evenodd">
        <g id="All-Icons" transform="translate(-38.000000, -415.000000)">
            <g id="Project-Users" transform="translate(38.000000, 412.000000)">
                <rect id="Rectangle" x="0" y="0" width="20" height="20"></rect>
                <g id="Group" transform="translate(0.833333, 3.333333)" fill="#3E4551" fill-rule="nonzero">
                    <path d="M13.0583333,7.60833333 C14.2,8.38333333 15,9.43333333 15,10.8333333 L15,13.3333333 L18.3333333,13.3333333 L18.3333333,10.8333333 C18.3333333,9.01666667 15.3583333,7.94166667 13.0583333,7.60833333 Z" id="Path"></path>
                    <path d="M11.6666667,6.66666667 C13.5083333,6.66666667 15,5.175 15,3.33333333 C15,1.49166667 13.5083333,0 11.6666667,0 C11.275,0 10.9083333,0.0833333333 10.5583333,0.2 C11.25,1.05833333 11.6666667,2.15 11.6666667,3.33333333 C11.6666667,4.51666667 11.25,5.60833333 10.5583333,6.46666667 C10.9083333,6.58333333 11.275,6.66666667 11.6666667,6.66666667 Z" id="Path"></path>
                    <path d="M6.66666667,6.66666667 C8.50833333,6.66666667 10,5.175 10,3.33333333 C10,1.49166667 8.50833333,0 6.66666667,0 C4.825,0 3.33333333,1.49166667 3.33333333,3.33333333 C3.33333333,5.175 4.825,6.66666667 6.66666667,6.66666667 Z M6.66666667,1.66666667 C7.58333333,1.66666667 8.33333333,2.41666667 8.33333333,3.33333333 C8.33333333,4.25 7.58333333,5 6.66666667,5 C5.75,5 5,4.25 5,3.33333333 C5,2.41666667 5.75,1.66666667 6.66666667,1.66666667 Z" id="Shape"></path>
                    <path d="M6.66666667,7.5 C4.44166667,7.5 0,8.61666667 0,10.8333333 L0,13.3333333 L13.3333333,13.3333333 L13.3333333,10.8333333 C13.3333333,8.61666667 8.89166667,7.5 6.66666667,7.5 Z M11.6666667,11.6666667 L1.66666667,11.6666667 L1.66666667,10.8416667 C1.83333333,10.2416667 4.41666667,9.16666667 6.66666667,9.16666667 C8.91666667,9.16666667 11.5,10.2416667 11.6666667,10.8333333 L11.6666667,11.6666667 Z" id="Shape"></path>
                </g>
            </g>
        </g>
    </g>
</svg>